<svg width="19" height="20" viewBox="0 0 19 20" fill="none" xmlns="http://www.w3.org/2000/svg">
<path d="M18.9467 5.8767C18.9011 4.81185 18.7377 4.08327 18.5059 3.44676C18.2626 2.79023 17.9395 2.22978 17.4112 1.67734C16.8829 1.1249 16.3546 0.776621 15.7313 0.52442C15.127 0.276221 14.4352 0.108086 13.4242 0.060048C12.4094 0.0120096 12.0864 0 9.50945 0C6.92874 0 6.60567 0.0120096 5.59467 0.060048C4.58367 0.108086 3.89193 0.280224 3.28761 0.52442C2.66048 0.780625 2.12838 1.1209 1.60387 1.67734C1.07937 2.23379 0.7487 2.79023 0.509252 3.44676C0.277406 4.08327 0.113973 4.81185 0.0683639 5.8767C0.0227548 6.94556 0.0113525 7.28583 0.0113525 10C0.0113525 12.7182 0.0227548 13.0584 0.0683639 14.1233C0.113973 15.1882 0.277406 15.9167 0.509252 16.5532C0.752501 17.2098 1.07557 17.7702 1.60387 18.3227C2.12838 18.8791 2.66048 19.2234 3.28381 19.4756C3.88813 19.7238 4.57987 19.8919 5.59087 19.94C6.60567 19.988 6.92874 20 9.50565 20C12.0864 20 12.4094 19.988 13.4204 19.94C14.4314 19.8919 15.1232 19.7198 15.7275 19.4756C16.3508 19.2194 16.8829 18.8791 17.4074 18.3227C17.9319 17.7662 18.2626 17.2098 18.5021 16.5532C18.7377 15.9167 18.8973 15.1882 18.9429 14.1233C18.9885 13.0544 19 12.7142 19 10C19 7.28583 18.9923 6.94155 18.9467 5.8767ZM17.2402 14.0432C17.1984 15.02 17.0426 15.5524 16.9133 15.9007C16.7423 16.3651 16.5333 16.7014 16.1988 17.0536C15.8643 17.4059 15.5489 17.6181 15.1042 17.8062C14.7697 17.9424 14.2642 18.1065 13.3406 18.1505C12.341 18.1986 12.0408 18.2106 9.50185 18.2106C6.96294 18.2106 6.66268 18.1986 5.66308 18.1505C4.7357 18.1065 4.2302 17.9424 3.89953 17.8062C3.45864 17.6261 3.13938 17.4059 2.80491 17.0536C2.47044 16.7014 2.269 16.3691 2.09037 15.9007C1.96114 15.5484 1.80531 15.016 1.7635 14.0432C1.71789 12.9904 1.70649 12.6741 1.70649 10C1.70649 7.32586 1.71789 7.00961 1.7635 5.95677C1.80531 4.97998 1.96114 4.44756 2.09037 4.09928C2.2614 3.63491 2.47044 3.29864 2.80491 2.94636C3.13938 2.59408 3.45484 2.38191 3.89953 2.19376C4.234 2.05765 4.7395 1.89351 5.66308 1.84948C6.66268 1.80144 6.96294 1.78943 9.50185 1.78943C12.0408 1.78943 12.341 1.80144 13.3406 1.84948C14.268 1.89351 14.7735 2.05765 15.1042 2.19376C15.5451 2.3739 15.8643 2.59408 16.1988 2.94636C16.5333 3.29864 16.7347 3.63091 16.9133 4.09928C17.0426 4.45156 17.1984 4.98399 17.2402 5.95677C17.2858 7.00961 17.2972 7.32586 17.2972 10C17.2972 12.6741 17.282 12.9904 17.2402 14.0432Z" fill="#8E8E8E"/>
<path d="M9.50188 4.85986C6.80334 4.85986 4.6217 7.1617 4.6217 9.99998C4.6217 12.8422 6.80714 15.1401 9.50188 15.1401C12.1966 15.1401 14.3821 12.8342 14.3821 9.99998C14.3821 7.1577 12.2004 4.85986 9.50188 4.85986ZM9.50188 13.3346C7.75353 13.3346 6.33585 11.8414 6.33585 9.99998C6.33585 8.1585 7.75353 6.66531 9.50188 6.66531C11.2502 6.66531 12.6679 8.1585 12.6679 9.99998C12.6679 11.8414 11.2502 13.3346 9.50188 13.3346Z" fill="#8E8E8E"/>
<path d="M14.572 5.86091C15.2017 5.86091 15.7122 5.32322 15.7122 4.65995C15.7122 3.99667 15.2017 3.45898 14.572 3.45898C13.9423 3.45898 13.4318 3.99667 13.4318 4.65995C13.4318 5.32322 13.9423 5.86091 14.572 5.86091Z" fill="#8E8E8E"/>
<path d="M0 10C0 12.7182 0.0114023 13.0584 0.0570114 14.1233C0.102621 15.1882 0.266053 15.9167 0.4979 16.5532C0.741148 17.2098 1.06421 17.7702 1.59252 18.3227C2.11702 18.8751 2.64913 19.2234 3.27245 19.4756C3.87678 19.7238 4.56851 19.8919 5.57952 19.94C6.59432 19.988 6.91738 20 9.4943 20C12.075 20 12.3981 19.988 13.4091 19.94C14.4201 19.8919 15.1118 19.7198 15.7161 19.4756C16.3395 19.2194 16.8716 18.8791 17.3961 18.3227C17.9206 17.7702 18.2513 17.2098 18.4907 16.5532C18.7263 15.9167 18.886 15.1882 18.9316 14.1233C18.9772 13.0544 18.9886 12.7142 18.9886 10C18.9886 7.28183 18.9772 6.94155 18.9316 5.8767C18.886 4.81185 18.7225 4.08327 18.4907 3.44676C18.2474 2.79023 17.9244 2.22978 17.3961 1.67734C16.8754 1.1209 16.3433 0.776621 15.7199 0.52442C15.1156 0.276221 14.4239 0.108086 13.4129 0.060048C12.3981 0.0120096 12.075 0 9.4981 0C6.91738 0 6.59432 0.0120096 5.58332 0.060048C4.57231 0.108086 3.88058 0.280224 3.27626 0.52442C2.65293 0.780625 2.12082 1.1209 1.59632 1.67734C1.07181 2.23379 0.741148 2.79023 0.5017 3.44676C0.266053 4.08327 0.102621 4.81185 0.0570114 5.8767C0.0114023 6.94155 0 7.28183 0 10ZM1.71414 10C1.71414 7.32986 1.72555 7.00961 1.77115 5.95677C1.81296 4.97998 1.96879 4.44756 2.09802 4.09928C2.26905 3.63491 2.4781 3.29864 2.81256 2.94636C3.14703 2.59408 3.46249 2.38191 3.90718 2.19376C4.24165 2.05765 4.74715 1.89351 5.67073 1.84948C6.67033 1.80144 6.97059 1.78943 9.5095 1.78943C12.0484 1.78943 12.3487 1.80144 13.3483 1.84948C14.2757 1.89351 14.7812 2.05765 15.1118 2.19376C15.5527 2.3739 15.872 2.59408 16.2064 2.94636C16.5409 3.29864 16.7423 3.63091 16.921 4.09928C17.0502 4.45156 17.206 4.98399 17.2478 5.95677C17.2935 7.00961 17.3049 7.32586 17.3049 10C17.3049 12.6741 17.2935 12.9904 17.2478 14.0432C17.206 15.02 17.0502 15.5524 16.921 15.9007C16.75 16.3651 16.5409 16.7014 16.2064 17.0536C15.872 17.4059 15.5565 17.6181 15.1118 17.8062C14.7774 17.9424 14.2719 18.1065 13.3483 18.1505C12.3487 18.1986 12.0484 18.2106 9.5095 18.2106C6.97059 18.2106 6.67033 18.1986 5.67073 18.1505C4.74335 18.1065 4.23785 17.9424 3.90718 17.8062C3.46629 17.6261 3.14703 17.4059 2.81256 17.0536C2.4781 16.7014 2.27666 16.3691 2.09802 15.9007C1.96879 15.5484 1.81296 15.016 1.77115 14.0432C1.72174 12.9904 1.71414 12.6701 1.71414 10Z" fill="#8E8E8E"/>
</svg>
