<svg width="21" height="21" viewBox="0 0 21 21" fill="none" xmlns="http://www.w3.org/2000/svg">
<path fill-rule="evenodd" clip-rule="evenodd" d="M1.78247 9.88172C7.20877 7.51757 10.8272 5.95898 12.6376 5.20594C17.8069 3.05588 18.881 2.68239 19.5811 2.67005C19.7351 2.66734 20.0794 2.7055 20.3024 2.88646C20.4907 3.03926 20.5425 3.24568 20.5673 3.39055C20.5921 3.53542 20.623 3.86544 20.5984 4.12331C20.3183 7.06659 19.1062 14.2091 18.4896 17.5057C18.2286 18.9005 17.7149 19.3682 17.2175 19.414C16.1365 19.5135 15.3157 18.6997 14.2688 18.0134C12.6305 16.9395 11.705 16.271 10.1148 15.223C8.27705 14.012 9.46839 13.3464 10.5157 12.2586C10.7898 11.9739 15.5525 7.6419 15.6446 7.24892C15.6562 7.19977 15.6669 7.01657 15.558 6.91983C15.4492 6.82309 15.2886 6.85618 15.1726 6.88248C15.0083 6.91978 12.3912 8.64961 7.32123 12.072C6.57837 12.5821 5.9055 12.8306 5.30264 12.8176C4.63803 12.8032 3.35959 12.4418 2.4092 12.1329C1.24351 11.754 0.317045 11.5536 0.397719 10.9101C0.43974 10.5749 0.901323 10.2321 1.78247 9.88172Z" fill="#8E8E8E"/>
</svg>
