<svg width="22" height="22" viewBox="0 0 22 22" fill="none" xmlns="http://www.w3.org/2000/svg">
<path d="M21.5469 5.7105C21.2932 4.76816 20.5502 4.02517 19.6078 3.77146C17.8862 3.30029 11 3.30029 11 3.30029C11 3.30029 4.11366 3.30029 2.39208 3.75334C1.46787 4.00704 0.706751 4.76816 0.453046 5.7105C0 7.43207 0 11.0021 0 11.0021C0 11.0021 0 14.5902 0.453046 16.2936C0.706751 17.236 1.44975 17.979 2.39208 18.2327C4.13178 18.7038 11 18.7038 11 18.7038C11 18.7038 17.8862 18.7038 19.6078 18.2508C20.5502 17.9971 21.2932 17.2541 21.5469 16.3118C21.9999 14.5902 21.9999 11.0202 21.9999 11.0202C21.9999 11.0202 22.018 7.43207 21.5469 5.7105Z" fill="#8E8E8E"/>
<path d="M8.80725 14.3004L14.5337 11.0023L8.80725 7.7041V14.3004Z" fill="#181818"/>
</svg>
