<svg width="42" height="13" viewBox="0 0 42 13" fill="none" xmlns="http://www.w3.org/2000/svg">
<path fill-rule="evenodd" clip-rule="evenodd" d="M0.853126 1.175C1.03879 0.805354 1.36346 0.524412 1.75595 0.393778C2.14844 0.263143 2.57672 0.293478 2.94688 0.47813L21 9.5L39.05 0.475003C39.2336 0.381193 39.434 0.324661 39.6396 0.308664C39.8452 0.292668 40.0519 0.317523 40.2479 0.381799C40.4438 0.446075 40.6251 0.548499 40.7812 0.683166C40.9374 0.817832 41.0654 0.982078 41.1577 1.16643C41.2501 1.35079 41.3051 1.55161 41.3195 1.75732C41.3339 1.96302 41.3075 2.16954 41.2417 2.36497C41.1759 2.5604 41.072 2.74088 40.9362 2.896C40.8003 3.05111 40.6351 3.1778 40.45 3.26875L21.7 12.6438C21.4827 12.7526 21.243 12.8093 21 12.8093C20.757 12.8093 20.5173 12.7526 20.3 12.6438L1.55 3.26875C1.18035 3.08309 0.899409 2.75842 0.768774 2.36593C0.63814 1.97344 0.668474 1.54516 0.853126 1.175Z" fill="#F2F2F2"/>
</svg>
