<svg width="13" height="13" viewBox="0 0 15 15" fill="none" xmlns="http://www.w3.org/2000/svg">
<path d="M8.70518 7.83048L14.6838 2.15084C14.8181 2.0018 14.8883 1.81008 14.8803 1.614C14.8724 1.41792 14.7868 1.23192 14.6408 1.09316C14.4947 0.954409 14.2989 0.873123 14.0925 0.865549C13.8861 0.857975 13.6843 0.924672 13.5274 1.05231L7.54883 6.73195L1.57026 1.04452C1.41337 0.91688 1.21157 0.850185 1.00517 0.857759C0.798765 0.865333 0.602973 0.946618 0.456917 1.08537C0.310861 1.22412 0.225297 1.41013 0.217324 1.60621C0.209352 1.80229 0.279558 1.99401 0.413913 2.14305L6.39248 7.83048L0.405712 13.5101C0.319862 13.58 0.250136 13.6659 0.200911 13.7626C0.151685 13.8592 0.124023 13.9645 0.11966 14.0718C0.115298 14.1791 0.134329 14.2861 0.175559 14.3861C0.21679 14.4861 0.27933 14.5769 0.359253 14.6528C0.439176 14.7287 0.534757 14.7881 0.639997 14.8273C0.745238 14.8665 0.857865 14.8846 0.970809 14.8804C1.08375 14.8763 1.19458 14.85 1.29632 14.8032C1.39807 14.7565 1.48854 14.6902 1.56206 14.6087L7.54883 8.92902L13.5274 14.6087C13.6843 14.7363 13.8861 14.803 14.0925 14.7954C14.2989 14.7878 14.4947 14.7066 14.6408 14.5678C14.7868 14.4291 14.8724 14.2431 14.8803 14.047C14.8883 13.8509 14.8181 13.6592 14.6838 13.5101L8.70518 7.83048Z" fill="#181818"/>
</svg>
